<svg width="15" height="10" viewBox="0 0 15 10" fill="none" xmlns="http://www.w3.org/2000/svg">
  <path fill="black" d="M10 4C11.1067 4 11.9933 3.10667 11.9933 2C11.9933 0.893333 11.1067 0 10 0C8.89333 0 8 0.893333 8 2C8 3.10667 8.89333 4 10 4ZM4.66667 4C5.77333 4 6.66 3.10667 6.66 2C6.66 0.893333 5.77333 0 4.66667 0C3.56 0 2.66667 0.893333 2.66667 2C2.66667 3.10667 3.56 4 4.66667 4ZM4.66667 5.33333C3.11333 5.33333 0 6.11333 0 7.66667V9.33333H9.33333V7.66667C9.33333 6.11333 6.22 5.33333 4.66667 5.33333ZM10 5.33333C9.80667 5.33333 9.58667 5.34667 9.35333 5.36667C10.1267 5.92667 10.6667 6.68 10.6667 7.66667V9.33333H14.6667V7.66667C14.6667 6.11333 11.5533 5.33333 10 5.33333Z" />
</svg>
